<svg width="23" height="23" viewBox="0 0 23 23" fill="none" xmlns="http://www.w3.org/2000/svg">
<path d="M20.875 0.229248H2.12012C1.26074 0.229248 0.5625 0.937256 0.5625 1.8064V20.5271C0.5625 21.3962 1.26074 22.1042 2.12012 22.1042H20.875C21.7344 22.1042 22.4375 21.3962 22.4375 20.5271V1.8064C22.4375 0.937256 21.7344 0.229248 20.875 0.229248ZM7.17383 18.9792H3.93164V8.53979H7.17871V18.9792H7.17383ZM5.55273 7.11401C4.5127 7.11401 3.67285 6.26929 3.67285 5.23413C3.67285 4.19897 4.5127 3.35425 5.55273 3.35425C6.58789 3.35425 7.43262 4.19897 7.43262 5.23413C7.43262 6.27417 6.59277 7.11401 5.55273 7.11401ZM19.3271 18.9792H16.085V13.9011C16.085 12.6902 16.0605 11.1326 14.4004 11.1326C12.7109 11.1326 12.4521 12.4509 12.4521 13.8132V18.9792H9.20996V8.53979H12.3203V9.96558H12.3643C12.7988 9.14526 13.8584 8.28101 15.4355 8.28101C18.7168 8.28101 19.3271 10.4441 19.3271 13.2566V18.9792Z" fill="#373BD7"/>
</svg>
