<svg width="24" height="24" viewBox="0 0 24 24" fill="none" xmlns="http://www.w3.org/2000/svg">
<g id="Iconsax/Bold/location">
<path id="Vector" d="M20.621 8.45C19.571 3.83 15.541 1.75 12.001 1.75H11.991C8.46101 1.75 4.42101 3.82 3.37101 8.44C2.20101 13.6 5.36101 17.97 8.22101 20.72C9.23473 21.7012 10.5902 22.2498 12.001 22.25C13.361 22.25 14.721 21.74 15.771 20.72C18.631 17.97 21.791 13.61 20.621 8.45ZM12.001 13.46C11.5873 13.46 11.1777 13.3785 10.7956 13.2202C10.4134 13.0619 10.0661 12.8299 9.77362 12.5374C9.48112 12.2449 9.24909 11.8976 9.09079 11.5155C8.93249 11.1333 8.85101 10.7237 8.85101 10.31C8.85101 9.89634 8.93249 9.48672 9.09079 9.10455C9.24909 8.72237 9.48112 8.37512 9.77362 8.08261C10.0661 7.79011 10.4134 7.55808 10.7956 7.39978C11.1777 7.24148 11.5873 7.16 12.001 7.16C12.8364 7.16 13.6377 7.49187 14.2284 8.08261C14.8191 8.67335 15.151 9.47457 15.151 10.31C15.151 11.1454 14.8191 11.9466 14.2284 12.5374C13.6377 13.1281 12.8364 13.46 12.001 13.46Z" fill="black"/>
</g>
</svg>
