<svg width="38" height="38" viewBox="0 0 38 38" fill="none" xmlns="http://www.w3.org/2000/svg">
<path d="M23.75 36.0208H14.25C5.6525 36.0208 1.97917 32.3475 1.97917 23.75V14.25C1.97917 5.65246 5.6525 1.97913 14.25 1.97913H23.75C32.3475 1.97913 36.0208 5.65246 36.0208 14.25V23.75C36.0208 32.3475 32.3475 36.0208 23.75 36.0208ZM14.25 4.35413C6.95083 4.35413 4.35417 6.95079 4.35417 14.25V23.75C4.35417 31.0491 6.95083 33.6458 14.25 33.6458H23.75C31.0492 33.6458 33.6458 31.0491 33.6458 23.75V14.25C33.6458 6.95079 31.0492 4.35413 23.75 4.35413H14.25Z" fill="#5C4EFF"/>
<path d="M18.9984 20.7101C18.7926 20.7101 18.5868 20.6626 18.3968 20.5517L10.0051 15.7067C9.87033 15.6294 9.75226 15.5261 9.65771 15.4028C9.56316 15.2795 9.494 15.1387 9.45424 14.9885C9.41448 14.8383 9.40491 14.6817 9.42608 14.5277C9.44725 14.3738 9.49875 14.2256 9.57758 14.0917C9.91008 13.5217 10.6384 13.3317 11.1926 13.6642L18.9826 18.1767L26.7251 13.6959C27.2951 13.3634 28.0234 13.5692 28.3401 14.1234C28.6568 14.6776 28.4668 15.4217 27.9126 15.7384L19.5843 20.5517C19.4101 20.6467 19.2042 20.7101 18.9984 20.7101Z" fill="#5C4EFF"/>
<path d="M19 29.3201C18.3508 29.3201 17.8125 28.7818 17.8125 28.1326V19.5193C17.8125 18.8701 18.3508 18.3318 19 18.3318C19.6492 18.3318 20.1875 18.8701 20.1875 19.5193V28.1326C20.1875 28.7818 19.6492 29.3201 19 29.3201Z" fill="#5C4EFF"/>
<path d="M19.0032 29.6875C18.0848 29.6875 17.1823 29.4817 16.454 29.0858L11.3873 26.2675C9.86733 25.4283 8.69567 23.4175 8.69567 21.6758V16.3083C8.69567 14.5825 9.88317 12.5717 11.3873 11.7167L16.454 8.89835C17.9107 8.09085 20.0957 8.09085 21.5523 8.89835L26.619 11.7167C28.139 12.5558 29.3107 14.5667 29.3107 16.3083V21.6758C29.3107 23.4017 28.1232 25.4125 26.619 26.2675L21.5523 29.0858C20.824 29.4975 19.9215 29.6875 19.0032 29.6875ZM19.0032 10.6875C18.4807 10.6875 17.974 10.7825 17.6098 10.9883L12.5432 13.8067C11.7673 14.2342 11.0707 15.4375 11.0707 16.3083V21.6758C11.0707 22.5625 11.7673 23.75 12.5432 24.1775L17.6098 26.9958C18.3382 27.4075 19.6682 27.4075 20.3965 26.9958L25.4632 24.1775C26.239 23.75 26.9357 22.5467 26.9357 21.6758V16.3083C26.9357 15.4217 26.239 14.2342 25.4632 13.8067L20.3965 10.9883C20.0323 10.7825 19.5257 10.6875 19.0032 10.6875Z" fill="#5C4EFF"/>
</svg>
