<svg width="38" height="38" viewBox="0 0 38 38" fill="none" xmlns="http://www.w3.org/2000/svg">
<g id="Iconsax/Outline/profile">
<path id="Vector" d="M19.2517 18.3983H19.1251C19.0307 18.3824 18.9344 18.3824 18.8401 18.3983C14.2484 18.2558 10.7809 14.6458 10.7809 10.1966C10.7809 5.66829 14.4701 1.97913 18.9984 1.97913C23.5267 1.97913 27.2159 5.66829 27.2159 10.1966C27.2001 14.6458 23.7167 18.2558 19.2992 18.3983H19.2517ZM18.9984 4.35413C17.4502 4.3583 15.9665 4.97519 14.8718 6.06997C13.777 7.16475 13.1601 8.64838 13.1559 10.1966C13.1559 13.3633 15.6259 15.9125 18.7767 16.0233C18.8559 16.0075 19.0776 16.0075 19.2834 16.0233C22.3867 15.8808 24.8251 13.3316 24.8409 10.1966C24.8367 8.64838 24.2198 7.16475 23.1251 6.06997C22.0303 4.97519 20.5467 4.3583 18.9984 4.35413ZM19.2723 35.7041C16.169 35.7041 13.0498 34.9125 10.6907 33.3291C8.48983 31.8725 7.2865 29.8775 7.2865 27.7083C7.2865 25.5391 8.48983 23.5283 10.6907 22.0558C15.4407 18.905 23.1357 18.905 27.854 22.0558C30.039 23.5125 31.2582 25.5075 31.2582 27.6766C31.2582 29.8458 30.0548 31.8566 27.854 33.3291C25.479 34.9125 22.3757 35.7041 19.2723 35.7041ZM12.0048 24.0508C10.4848 25.0641 9.6615 26.3625 9.6615 27.7241C9.6615 29.07 10.5007 30.3683 12.0048 31.3658C15.9473 34.01 22.5973 34.01 26.5398 31.3658C28.0598 30.3525 28.8832 29.0541 28.8832 27.6925C28.8832 26.3466 28.044 25.0483 26.5398 24.0508C22.5973 21.4225 15.9473 21.4225 12.0048 24.0508Z" fill="#5C4EFF"/>
</g>
</svg>
