<svg width="38" height="38" viewBox="0 0 38 38" fill="none" xmlns="http://www.w3.org/2000/svg">
<g id="tool">
<path id="Vector" d="M23.275 9.97499C22.9849 10.271 22.8224 10.6689 22.8224 11.0833C22.8224 11.4978 22.9849 11.8957 23.275 12.1917L25.8083 14.725C26.1043 15.0151 26.5022 15.1776 26.9167 15.1776C27.3311 15.1776 27.729 15.0151 28.025 14.725L33.9942 8.75582C34.7903 10.5152 35.0314 12.4754 34.6852 14.3753C34.3391 16.2752 33.4221 18.0244 32.0566 19.3899C30.6911 20.7555 28.9419 21.6724 27.042 22.0185C25.1421 22.3647 23.1819 22.1236 21.4225 21.3275L10.4817 32.2683C9.85179 32.8982 8.99748 33.2521 8.10668 33.2521C7.21588 33.2521 6.36157 32.8982 5.73168 32.2683C5.10179 31.6384 4.74792 30.7841 4.74792 29.8933C4.74792 29.0025 5.10179 28.1482 5.73168 27.5183L16.6725 16.5775C15.8764 14.8181 15.6353 12.8579 15.9815 10.958C16.3276 9.05815 17.2446 7.3089 18.6101 5.94338C19.9756 4.57786 21.7248 3.66092 23.6247 3.31476C25.5246 2.9686 27.4848 3.20967 29.2442 4.00582L23.2908 9.95916L23.275 9.97499Z" stroke="#5C4EFF" stroke-width="2" stroke-linecap="round" stroke-linejoin="round"/>
</g>
</svg>
