<svg width="38" height="38" viewBox="0 0 38 38" fill="none" xmlns="http://www.w3.org/2000/svg">
<g id="Iconsax/Linear/i3dcubescan">
<path id="Vector" d="M3.16666 14.25V11.0833C3.16666 6.33329 6.33332 3.16663 11.0833 3.16663H26.9167C31.6667 3.16663 34.8333 6.33329 34.8333 11.0833V14.25M3.16666 23.75V26.9166C3.16666 31.6666 6.33332 34.8333 11.0833 34.8333H26.9167C31.6667 34.8333 34.8333 31.6666 34.8333 26.9166V23.75" stroke="#5C4EFF" stroke-width="1.5" stroke-miterlimit="10" stroke-linecap="round" stroke-linejoin="round"/>
<path id="Vector_2" d="M10.6083 14.6616L19 19.5225L27.3283 14.6933M19 28.1358V19.5066" stroke="#5C4EFF" stroke-width="1.5" stroke-linecap="round" stroke-linejoin="round"/>
<path id="Vector_3" d="M17.0367 9.95922L11.97 12.7776C10.83 13.4109 9.88 15.0101 9.88 16.3242V21.6917C9.88 23.0059 10.8142 24.6051 11.97 25.2384L17.0367 28.0567C18.1133 28.6584 19.8867 28.6584 20.9792 28.0567L26.0458 25.2384C27.1858 24.6051 28.1358 23.0059 28.1358 21.6917V16.3242C28.1358 15.0101 27.2017 13.4109 26.0458 12.7776L20.9792 9.95922C19.8867 9.34172 18.1133 9.34172 17.0367 9.95922Z" stroke="#5C4EFF" stroke-width="1.5" stroke-linecap="round" stroke-linejoin="round"/>
</g>
</svg>
