<svg width="38" height="38" viewBox="0 0 38 38" fill="none" xmlns="http://www.w3.org/2000/svg">
<g id="Iconsax/Linear/cpusetting">
<path id="Vector" d="M31.6667 15.2C31.6667 8.86671 29.1333 6.33337 22.8 6.33337H15.2C8.86667 6.33337 6.33333 8.86671 6.33333 15.2V22.8C6.33333 29.1334 8.86667 31.6667 15.2 31.6667" stroke="#5C4EFF" stroke-width="1.5" stroke-linecap="round" stroke-linejoin="round"/>
<path id="Vector_2" d="M25.8875 12.6666C25.0167 11.5583 23.56 11.0833 21.375 11.0833H16.625C12.6667 11.0833 11.0833 12.6666 11.0833 16.625V21.375C11.0833 23.56 11.5583 25.0166 12.6508 25.8875M12.6825 6.33329V3.16663M19 6.33329V3.16663M25.3333 6.33329V3.16663M31.6667 12.6666H34.8333M12.6825 31.6666V34.8333M3.16667 12.6666H6.33333M3.16667 19H6.33333M3.16667 25.3333H6.33333" stroke="#5C4EFF" stroke-width="1.5" stroke-linecap="round" stroke-linejoin="round"/>
<path id="Vector_3" d="M26.4575 29.4342C26.7881 29.4342 27.1155 29.3691 27.4209 29.2425C27.7263 29.116 28.0039 28.9306 28.2376 28.6968C28.4714 28.463 28.6569 28.1855 28.7834 27.8801C28.9099 27.5746 28.975 27.2473 28.975 26.9167C28.975 26.5861 28.9099 26.2587 28.7834 25.9533C28.6569 25.6478 28.4714 25.3703 28.2376 25.1365C28.0039 24.9028 27.7263 24.7173 27.4209 24.5908C27.1155 24.4643 26.7881 24.3992 26.4575 24.3992C25.7898 24.3992 25.1495 24.6644 24.6774 25.1365C24.2052 25.6087 23.94 26.249 23.94 26.9167C23.94 27.5844 24.2052 28.2247 24.6774 28.6968C25.1495 29.1689 25.7898 29.4342 26.4575 29.4342Z" stroke="#5C4EFF" stroke-width="1.5" stroke-miterlimit="10" stroke-linecap="round" stroke-linejoin="round"/>
<path id="Vector_4" d="M18.0658 27.645V26.1725C18.0658 25.3017 18.7783 24.5892 19.6492 24.5892C21.1692 24.5892 21.7867 23.5125 21.0267 22.1984C20.922 22.0177 20.8541 21.818 20.8269 21.611C20.7997 21.4039 20.8137 21.1935 20.8681 20.9919C20.9226 20.7902 21.0164 20.6014 21.1441 20.4362C21.2719 20.271 21.4311 20.1326 21.6125 20.0292L23.0533 19.19C23.7183 18.7942 24.5733 19.0317 24.9692 19.6967L25.0642 19.855C25.8242 21.1692 27.0592 21.1692 27.8192 19.855L27.9142 19.6967C28.31 19.0317 29.165 18.81 29.83 19.19L31.2708 20.0292C32.0308 20.4725 32.3 21.4384 31.8567 22.1984C31.0967 23.5125 31.7142 24.5892 33.2342 24.5892C34.105 24.5892 34.8175 25.3017 34.8175 26.1725V27.645C34.8175 28.5159 34.105 29.2284 33.2342 29.2284C31.7142 29.2284 31.0967 30.305 31.8567 31.6192C31.9614 31.7999 32.0293 31.9996 32.0565 32.2066C32.0837 32.4137 32.0696 32.6241 32.0152 32.8257C31.9607 33.0273 31.8669 33.2162 31.7392 33.3814C31.6114 33.5466 31.4523 33.6849 31.2708 33.7884L29.83 34.6275C29.165 35.0234 28.31 34.7859 27.9142 34.1209L27.8192 33.9625C27.0592 32.6484 25.8242 32.6484 25.0642 33.9625L24.9692 34.1209C24.5733 34.7859 23.7183 35.0075 23.0533 34.6275L21.6125 33.7884C20.8525 33.345 20.5833 32.3792 21.0267 31.6192C21.7867 30.305 21.1692 29.2284 19.6492 29.2284C19.4407 29.2305 19.2338 29.191 19.0408 29.1122C18.8477 29.0333 18.6723 28.9168 18.5249 28.7693C18.3774 28.6219 18.2609 28.4465 18.182 28.2535C18.1032 28.0604 18.0637 27.8536 18.0658 27.645Z" stroke="#5C4EFF" stroke-width="1.5" stroke-miterlimit="10" stroke-linecap="round" stroke-linejoin="round"/>
</g>
</svg>
