<svg width="38" height="38" viewBox="0 0 38 38" fill="none" xmlns="http://www.w3.org/2000/svg">
<path d="M21.2642 24.9343H6.96667C5.19333 24.9343 3.57833 24.016 2.67583 22.4802C1.77333 20.9443 1.74167 19.1077 2.59667 17.5402L9.7375 4.54099C10.1623 3.75402 10.7937 3.09783 11.5637 2.64307C12.3338 2.18831 13.2132 1.95219 14.1075 1.96016C15.96 1.96016 17.5908 2.92599 18.4775 4.54099L25.6342 17.5402C26.4892 19.0918 26.4575 20.9443 25.555 22.4802C24.6525 24.016 23.0375 24.9343 21.2642 24.9343ZM14.1075 4.35099C13.1417 4.35099 12.2867 4.85766 11.8275 5.69682L4.68667 18.696C4.24333 19.5193 4.25917 20.4693 4.71833 21.2768C5.19333 22.0843 6.0325 22.5593 6.96667 22.5593H21.2642C22.1983 22.5593 23.0375 22.0843 23.5125 21.2768C23.9875 20.4693 24.0033 19.5193 23.5442 18.696L16.3875 5.69682C15.9283 4.85766 15.0733 4.35099 14.1075 4.35099Z" fill="#5C4EFF"/>
<path d="M24.5417 36.0208C18.2083 36.0208 13.0625 30.875 13.0625 24.5417C13.0625 24.2567 13.0783 23.9717 13.0942 23.6867C13.1258 23.0533 13.6483 22.5625 14.2817 22.5625H21.2642C22.1983 22.5625 23.0375 22.0875 23.5125 21.28C23.9875 20.4725 24.0033 19.5225 23.5442 18.6992L21.5175 15.01C21.4267 14.8461 21.3765 14.6628 21.371 14.4755C21.3655 14.2882 21.4049 14.1023 21.4858 13.9333C21.6442 13.585 21.9608 13.3475 22.325 13.2683C23.0375 13.1258 23.7817 13.0625 24.5417 13.0625C30.875 13.0625 36.0208 18.2083 36.0208 24.5417C36.0208 30.875 30.875 36.0208 24.5417 36.0208ZM15.4533 24.9375C15.6592 29.7825 19.665 33.6458 24.5417 33.6458C29.5608 33.6458 33.6458 29.5608 33.6458 24.5417C33.6458 19.5225 29.5608 15.4375 24.5417 15.4375H24.4625L25.6342 17.5592C26.4892 19.1108 26.4575 20.9633 25.555 22.4992C25.1196 23.2501 24.4934 23.8727 23.7398 24.3037C22.9863 24.7347 22.1322 24.9588 21.2642 24.9533H15.4533V24.9375Z" fill="#5C4EFF"/>
</svg>
